<?xml version="1.0" encoding="utf-8"?>
<?xml-stylesheet type="text/xsl" href="rss1.xsl"?>
<rss version="2.0" xmlns:atom="http://www.w3.org/2005/Atom" xmlns:content="http://purl.org/rss/1.0/modules/content/" xmlns:dc="http://purl.org/dc/elements/1.1/" xmlns:media="http://search.yahoo.com/mrss/">
<channel>
 <title>Getty</title>
 <link>http://www.gettyimg.com/</link>
 <atom:link href="http://www.gettyimg.com/" rel="self" type="application/rss+xml" />

 
                <item>
                <title><![CDATA[【HD Live Performances】FEED - MTV Video Music Awards S00E42 2023 - Pre-Show 1080i HDTV Backhaul MPA2.0 H.264-TrollHD]]></title>
                <link><![CDATA[https://sharemania.us/threads/mtv-video-music-awards-s00e42-2023-pre-show-1080i-hdtv-backhaul-mpa2-0-h-264-trollhd.229320/]]></link>
                <description><![CDATA[<article>
<blockquote class="messageText SelectQuoteContainer ugc baseHtml">
<div style="text-align: center"><b><span style="color: #ff0000">MTV Video Music Awards S00E42 2023 - Pre-Show 1080i HDTV Backhaul MPA2.0 H.264-TrollHD</span></b><br>
<br>
<img src="https://images2.imgbox.com/5f/4d/TtjL7dPP_o.jpg" class="bbCodeImage LbImage" alt="[​IMG]" data-url="https://images2.imgbox.com/5f/4d/TtjL7dPP_o.jpg" style=""> <br>
<div style="text-align: center">​</div>
<div class="ToggleTriggerAnchor bbCodeSpoilerContainer">
<button type="button" class="button bbCodeSpoilerButton ToggleTrigger Tooltip JsOnly" data-target="> .SpoilerTarget"><span>Spoiler: <span class="SpoilerTitle">MediaInfo</span></span></button>
<div class="SpoilerTarget bbCodeSpoilerText">Format : Matroska<br>
Format version : Version 4<br>
File size : 24.8 GiB<br>
Duration : 1 h 30 min<br>
Overall bit rate : 39.4 Mb/s<br>
Encoded date : UTC 2023-09-17 19:50:27<br>
Writing application : mkvmerge v79.0 ('Funeral Pyres') 64-bit<br>
Writing library : libebml v1.4.4 + libmatroska v1.7.1<br>
<br>
Video<br>
ID : 1<br>
Format : AVC<br>
Format/Info : Advanced Video Codec<br>
Format profile : High@L4.1<br>
Format settings : CABAC / 4 Ref Frames<br>
Format settings, CABAC : Yes<br>
Format settings, Reference : 4 frames<br>
Codec ID : V_MPEG4/ISO/AVC<br>
Duration : 1 h 30 min<br>
Bit rate : 39.0 Mb/s<br>
Width : 1 920 pixels<br>
Height : 1 080 pixels<br>
Display aspect ratio : 16:9<br>
Frame rate mode : Variable<br>
Frame rate : 59.940 (59940/1000) FPS<br>
Original frame rate : 29.970 (30000/1001) FPS<br>
Color space : YUV<br>
Chroma subsampling : 4:2:0<br>
Bit depth : 8 bits<br>
Scan type : Interlaced<br>
Scan type, store method : Separated fields<br>
Scan order : Top Field First<br>
Bits/(Pixel*Frame) : 0.314<br>
Stream size : 24.5 GiB (99%)<br>
Default : Yes<br>
Forced : No<br>
Color range : Limited<br>
Color primaries : BT.709<br>
Transfer characteristics : BT.709<br>
Matrix coefficients : BT.709<br>
<br>
Audio<br>
ID : 2<br>
Format : MPEG Audio<br>
Format version : Version 1<br>
Format profile : Layer 2<br>
Codec ID : A_MPEG/L2<br>
Codec ID/Hint : MP2<br>
Duration : 1 h 30 min<br>
Bit rate mode : Constant<br>
Bit rate : 384 kb/s<br>
Channel(s) : 2 channels<br>
Sampling rate : 48.0 kHz<br>
Frame rate : 41.667 FPS (1152 SPF)<br>
Compression mode : Lossy<br>
Stream size : 247 MiB (1%)<br>
Language : English<br>
Default : Yes<br>
Forced : No<br>
<br>
Menu<br>
00:06:05.000 : en:NLE Choppa &amp; Nelly - Ain't Gonna Answer + It's Getting Hot<br>
01:22:09.000 : en:Sabrina Carpenter - Feather + Nonsense</div>
</div><div style="text-align: center"><br>
<div class="bbCodeBlock bbCodeVfcHH HiddenContent">
<div class="attribution type">Hidden Content:</div>
<blockquote>You must either reply or click 'Like' to see the hidden information contained here.</blockquote>
</div></div></div>
<div class="messageTextEndMarker">&nbsp;</div>
</blockquote>
</article>]]></description>
                <author><![CDATA[melodie]]></author>
                </item>

                
                <item>
                <title><![CDATA[【Singles (lossless)】WAV - [17 STEMS] - Ariana Grande - Bang Bang]]></title>
                <link><![CDATA[https://sharemania.us/threads/17-stems-ariana-grande-bang-bang.229321/]]></link>
                <description><![CDATA[<article>
<blockquote class="messageText SelectQuoteContainer ugc baseHtml">
<div style="text-align: center">For remix too!<br>
<img src="https://i.discogs.com/NAOBsNei4mQaAVbJet2J8UMJw29yI-CiBkxx4gDMQtM/rs:fit/g:sm/q:90/h:520/w:600/czM6Ly9kaXNjb2dz/LWRhdGFiYXNlLWlt/YWdlcy9SLTYxMjgz/MjgtMTQxMjA5NjQ1/OC0yNjY0LmpwZWc.jpeg" class="bbCodeImage LbImage" alt="[​IMG]" data-url="https://i.discogs.com/NAOBsNei4mQaAVbJet2J8UMJw29yI-CiBkxx4gDMQtM/rs:fit/g:sm/q:90/h:520/w:600/czM6Ly9kaXNjb2dz/LWRhdGFiYXNlLWlt/YWdlcy9SLTYxMjgz/MjgtMTQxMjA5NjQ1/OC0yNjY0LmpwZWc.jpeg" style=""> <br>
<div class="bbCodeBlock bbCodeVfcHH HiddenContent">
<div class="attribution type">Hidden Content:</div>
<blockquote>You must either reply or click 'Like' to see the hidden information contained here.</blockquote>
</div></div>
<div class="messageTextEndMarker">&nbsp;</div>
</blockquote>
</article>]]></description>
                <author><![CDATA[02020203]]></author>
                </item>

                
                <item>
                <title><![CDATA[【UPSCALED】Katy Perry - I Kissed A Girl (LPCM AI UPSCALE) 1080p]]></title>
                <link><![CDATA[https://sharemania.us/threads/katy-perry-i-kissed-a-girl-lpcm-ai-upscale-1080p.229322/]]></link>
                <description><![CDATA[<article>
<blockquote class="messageText SelectQuoteContainer ugc baseHtml">
<img src="https://i.imgur.com/FiZtVdu.jpg" class="bbCodeImage LbImage" alt="[​IMG]" data-url="https://i.imgur.com/FiZtVdu.jpg" style=""> <br>
<img src="https://i.imgur.com/IbP1E2e.jpg" class="bbCodeImage LbImage" alt="[​IMG]" data-url="https://i.imgur.com/IbP1E2e.jpg" style=""> <br>
<img src="https://i.imgur.com/zlyVFeB.jpg" class="bbCodeImage LbImage" alt="[​IMG]" data-url="https://i.imgur.com/zlyVFeB.jpg" style=""> <br>
<img src="https://i.imgur.com/OabA77d.jpg" class="bbCodeImage LbImage" alt="[​IMG]" data-url="https://i.imgur.com/OabA77d.jpg" style=""> <br>
<img src="https://i.imgur.com/wMzr4ON.jpg" class="bbCodeImage LbImage" alt="[​IMG]" data-url="https://i.imgur.com/wMzr4ON.jpg" style=""> <br>
<br>
<div class="bbCodeBlock bbCodeVfcHH HiddenContent">
<div class="attribution type">Hidden Content:</div>
<blockquote>You must reply before you can see the hidden data contained here.</blockquote>
</div>
<div class="messageTextEndMarker">&nbsp;</div>
</blockquote>
</article>]]></description>
                <author><![CDATA[Clannadan]]></author>
                </item>

                </channel></rss>